<svg width="200" height="32" viewBox="0 0 200 32" fill="none" xmlns="http://www.w3.org/2000/svg">
<path d="M97.6 7.33333H99.8L105.533 22.8667H103.333L101.667 18.1333H95.4667L93.8 22.8667H91.8L97.6 7.33333ZM96.1333 16.5333H101.2L99.4 11.3333C99.1333 10.4667 98.7333 9.13333 98.7333 9.13333H98.6667C98.6667 9.13333 98.2667 10.4667 97.9333 11.3333L96.1333 16.5333Z" fill="white"/>
<path d="M105.867 19.2H107.667C107.933 21.1333 109.2 21.7333 110.867 21.7333C112.667 21.7333 113.467 20.9333 113.467 19.9333C113.467 18.6667 112.6 18.3333 110.533 17.9333C108.333 17.4667 106.333 17.0667 106.333 14.6C106.333 12.7333 107.8 11.5333 110.4 11.5333C113.133 11.5333 114.533 12.8667 114.8 15.0667H113C112.8 13.6 112 12.9333 110.333 12.9333C108.733 12.9333 108.067 13.6667 108.067 14.5333C108.067 15.8 109.133 16 111.067 16.3333C113.333 16.8 115.2 17.2667 115.2 19.8667C115.2 22.1333 113.4 23.2667 110.8 23.2667C107.8 23.2 106.067 21.7333 105.867 19.2Z" fill="white"/>
<path d="M116.067 19.2H117.867C118.133 21.1333 119.4 21.7333 121.067 21.7333C122.867 21.7333 123.667 20.9333 123.667 19.9333C123.667 18.6667 122.8 18.3333 120.733 17.9333C118.533 17.4667 116.533 17.0667 116.533 14.6C116.533 12.7333 118 11.5333 120.6 11.5333C123.333 11.5333 124.733 12.8667 125 15.0667H123.2C123 13.6 122.2 12.9333 120.533 12.9333C118.933 12.9333 118.267 13.6667 118.267 14.5333C118.267 15.8 119.333 16 121.267 16.3333C123.533 16.8 125.4 17.2667 125.4 19.8667C125.4 22.1333 123.6 23.2667 121 23.2667C117.933 23.2 116.2 21.7333 116.067 19.2Z" fill="white"/>
<path d="M126.533 17.2667C126.533 14 128.667 11.3333 131.867 11.3333C135.2 11.3333 137 13.9333 137 17.6H128.333C128.467 19.8667 129.667 21.6 131.933 21.6C133.533 21.6 134.667 20.8667 135.067 19.3333H136.8C136.267 21.7333 134.533 23.1333 132 23.1333C128.467 23.1333 126.533 20.5333 126.533 17.2667ZM128.333 16.3333H135.067C134.933 14.0667 133.8 12.7333 131.8 12.7333C129.733 12.7333 128.6 14.2667 128.333 16.3333Z" fill="white"/>
<path d="M137.533 11.6H139.133V8.06665H140.867V11.6H143.067V13.0667H140.867V20.3333C140.867 21.0667 141.267 21.3333 142 21.3333C142.333 21.3333 142.733 21.2667 142.933 21.1333H143V22.6667C142.6 22.7333 142.133 22.8667 141.6 22.8667C140.133 22.8667 139.133 22.2667 139.133 20.6667V13.0667H137.533V11.6Z" fill="white"/>
<path d="M148.067 17.6H150C150.267 20.2666 151.867 21.6 154.8 21.6C156.933 21.6 158.533 20.6 158.533 18.7333C158.533 16.6 156.667 16.0666 153.867 15.4666C151.133 14.8666 148.8 14.0666 148.8 11.2C148.8 8.66665 150.933 7.13332 154.067 7.13332C157.933 7.13332 159.533 9.06665 159.933 12H158.133C157.867 9.79998 156.4 8.66665 154.133 8.66665C152.067 8.66665 150.667 9.53332 150.667 11.2C150.667 12.9333 152.4 13.4666 154.733 13.9333C157.733 14.5333 160.533 15.2666 160.533 18.8C160.533 21.6666 158.133 23.3333 154.8 23.3333C150.333 23.1333 148.267 20.7333 148.067 17.6Z" fill="white"/>
<path d="M161.467 11.6H163.067V8.06665H164.8V11.6H167V13.0667H164.8V20.3333C164.8 21.0667 165.2 21.3333 165.933 21.3333C166.267 21.3333 166.667 21.2667 166.867 21.1333H166.933V22.6667C166.533 22.7333 166.067 22.8667 165.533 22.8667C164.067 22.8667 163.067 22.2667 163.067 20.6667V13.0667H161.467V11.6Z" fill="white"/>
<path d="M167.867 17.2667C167.867 14 169.933 11.3333 173.267 11.3333C176.6 11.3333 178.667 14 178.667 17.2667C178.667 20.5333 176.6 23.2 173.267 23.2C169.933 23.1333 167.867 20.5333 167.867 17.2667ZM176.867 17.2667C176.867 14.8 175.6 12.8 173.267 12.8C170.867 12.8 169.667 14.7333 169.667 17.2667C169.667 19.8 170.933 21.6667 173.267 21.6667C175.667 21.6667 176.867 19.7333 176.867 17.2667Z" fill="white"/>
<path d="M182 13.4667C182.733 12.4 183.867 11.4667 185.4 11.4667C185.733 11.4667 185.933 11.5333 186.133 11.6V13.3333H186.067C185.8 13.2667 185.667 13.2 185.333 13.2C183.6 13.2 182.067 14.5333 182.067 16.6V22.8H180.333V11.6H182.067L182 13.4667Z" fill="white"/>
<path d="M186.4 17.2667C186.4 14 188.533 11.3333 191.733 11.3333C195.067 11.3333 196.867 13.9333 196.867 17.6H188.2C188.333 19.8667 189.533 21.6 191.8 21.6C193.4 21.6 194.533 20.8667 194.933 19.3333H196.667C196.133 21.7333 194.4 23.1333 191.867 23.1333C188.4 23.1333 186.4 20.5333 186.4 17.2667ZM188.267 16.3333H195C194.867 14.0667 193.733 12.7333 191.733 12.7333C189.6 12.7333 188.533 14.2667 188.267 16.3333Z" fill="white"/>
<path d="M28.3333 22.4V7.46667L15.4 0V5.73333L20.4667 8.66667C20.6667 8.73333 20.6667 9.06667 20.4667 9.2L14.4667 12.6667C14.2667 12.7333 14.0667 12.7333 13.9333 12.6667L7.93333 9.2C7.73333 9.13333 7.73333 8.8 7.93333 8.66667L13 5.73333V0L0 7.46667V22.3333V22.2667V22.3333L4.93333 19.4667V13.6667C4.93333 13.4667 5.2 13.3333 5.33333 13.4L11.3333 16.8667C11.5333 16.9333 11.6 17.1333 11.6 17.4V24.3333C11.6 24.5333 11.3333 24.6667 11.2 24.6L6.13333 21.6667L1.2 24.5333L14.1333 32L27 24.5333L22.0667 21.6667L17 24.6667C16.8 24.8 16.6 24.6 16.6 24.4V17.4667C16.6 17.2667 16.7333 17.0667 16.8667 16.9333L22.8667 13.4667C23.0667 13.3333 23.2667 13.5333 23.2667 13.7333V19.5333L28.3333 22.4Z" fill="#CCCCCC"/>
<path d="M14.2 32L27.0667 24.5333L22.1333 21.6667L17.0667 24.6667C16.8667 24.8 16.6667 24.6 16.6667 24.4V17.4667C16.6667 17.2667 16.8 17.0667 16.9333 16.9333L22.9333 13.4667C23.1333 13.3333 23.3333 13.5333 23.3333 13.7333V19.5333L28.2667 22.4V7.46666L14.2 15.6667V32Z" fill="#A6A6A6"/>
<path d="M11.2667 24.6L6.2 21.6667L1.26667 24.5333L14.1333 32V15.6L0 7.46666V22.3333V22.2667V22.3333L4.93333 19.4667V13.6667C4.93333 13.4667 5.2 13.3333 5.33333 13.4L11.3333 16.8667C11.5333 16.9333 11.6 17.1333 11.6 17.4V24.3333C11.7333 24.5333 11.4667 24.6667 11.2667 24.6Z" fill="#CCCCCC"/>
<path d="M35.7333 17.4667V8.40001H39.5333V17.6C39.5333 19.0667 40.2667 20.1333 42.2 20.1333C43.9333 20.1333 44.8 19.0667 44.8 17.5333V8.40001H48.6V17.4667C48.6 21 46.4667 23.2 42.2 23.2C37.8 23.2 35.7333 21.0667 35.7333 17.4667Z" fill="white"/>
<path d="M50.5333 11.9333H53.8667V13.4H54C54.8 12.2 55.8667 11.6 57.4 11.6C59.8 11.6 61.2 13.3333 61.2 15.8V22.9333H57.7333V16.5333C57.7333 15.4 57.1333 14.6 56 14.6C54.8667 14.6 54.0667 15.6 54.0667 16.8667V22.9333H50.6667V11.9333H50.5333Z" fill="white"/>
<path d="M63 7.6H66.4667V10.4H63V7.6ZM63 11.9333H66.4667V22.9333H63V11.9333Z" fill="white"/>
<path d="M69.2667 20V14.7333H67.8V11.8667H69.2667V8.40001H72.6667V11.8667H74.6667V14.7333H72.6667V19.2667C72.6667 20.1333 73.1333 20.3333 73.9333 20.3333C74.2 20.3333 74.6 20.2667 74.6667 20.2667V22.8C74.4 22.8667 73.6667 23 72.7333 23C70.6667 23 69.2667 22.3333 69.2667 20Z" fill="white"/>
<path d="M76.8 23.8H78C79 23.8 79.4667 23.4 79.4667 22.6667C79.4667 22.2 79.2667 21.5333 78.8 20.4L75.5333 11.9333H79.2667L80.7333 16.6C81.0667 17.6667 81.4 19.1333 81.4 19.1333H81.4667C81.4667 19.1333 81.7333 17.6667 82.1333 16.6L83.6 11.9333H87.0667L83.2667 23.0667C82.4 25.6667 81.3333 26.5333 79.1333 26.5333H76.8667L76.8 23.8Z" fill="white"/>
<path d="M15.4 0V5.73333L20.4667 8.66667C20.6667 8.73333 20.6667 9.06667 20.4667 9.2L14.4667 12.6667C14.2667 12.7333 14.0667 12.7333 13.9333 12.6667L7.93333 9.2C7.73333 9.13333 7.73333 8.8 7.93333 8.66667L13 5.73333V0L0 7.46667L14.2 15.6667L28.4 7.46667L15.4 0Z" fill="white"/>
</svg>
