<svg width="92" height="32" viewBox="0 0 92 32" fill="none" xmlns="http://www.w3.org/2000/svg">
<path fill-rule="evenodd" clip-rule="evenodd" d="M66.4878 7.28H62.9939V10.1104H66.4878V7.28ZM66.4878 11.6279H62.9939V22.5966H66.4878V11.6279ZM35.9766 17.1997V8.15749H39.7707V17.3283C39.7707 18.8293 40.5427 19.8355 42.4068 19.8355C44.1652 19.8355 45 18.7633 45 17.2657V8.16079H48.7941V17.203C48.7941 20.7394 46.6727 22.8803 42.4101 22.8803C38.1178 22.877 35.9766 20.779 35.9766 17.1997ZM50.569 11.6279H53.9343V13.1289H54.0002C54.8152 11.9512 55.8643 11.3079 57.3853 11.3079C59.7838 11.3079 61.1992 13.0233 61.1992 15.4645V22.5999H57.7053V16.1704C57.7053 15.0125 57.1279 14.2208 55.9897 14.2208C54.8317 14.2208 54.0629 15.1841 54.0629 16.5333V22.5966H50.569V11.6279ZM69.2328 19.7068V14.4583H67.7745V11.6279H69.2328V8.15749H72.6409V11.6279H74.6336V14.4583H72.6409V18.9547C72.6409 19.8124 73.1127 20.0268 73.8616 20.0268C74.043 20.0268 74.2401 20.0184 74.3961 20.0117C74.4982 20.0073 74.5827 20.0037 74.6336 20.0037V22.5537C74.3334 22.6395 73.6702 22.7253 72.7267 22.7253C70.691 22.7286 69.2328 22.0622 69.2328 19.7068ZM77.9988 23.4972H76.8012V26.2188H79.0711C81.275 26.2188 82.3274 25.3182 83.205 22.7484L86.9991 11.6279H83.5052L82.0701 16.2991C81.7269 17.3679 81.4267 18.826 81.4267 18.826H81.3838C81.3838 18.826 81.0407 17.3712 80.6976 16.2991L79.2195 11.6279H75.5343L78.7708 20.0697C79.2195 21.2243 79.434 21.8676 79.434 22.3393C79.434 23.0914 79.0282 23.4972 77.9988 23.4972Z" fill="white"/>
<path d="M14.1875 32L27.1359 24.5364L22.1708 21.6755L17.0962 24.5993C16.9171 24.7086 16.6651 24.5662 16.6717 24.3543V17.404C16.6717 17.1954 16.7878 17.0099 16.9569 16.9139L22.9867 13.4371C23.1658 13.3278 23.4179 13.4669 23.4113 13.6821V19.5298L28.3764 22.3907V7.46358L14.1875 15.6424V32Z" fill="#A6A6A6"/>
<path d="M15.4293 0V5.72517L20.5039 8.64901C20.6863 8.75166 20.6929 9.03642 20.5039 9.13907L14.4741 12.6159C14.2917 12.7219 14.0761 12.7152 13.9069 12.6159L7.87717 9.13907C7.69144 9.03974 7.68812 8.74834 7.87717 8.64901L12.9484 5.72517V0L0 7.46358L14.1889 15.6424L28.3777 7.46358L15.4293 0Z" fill="white"/>
<path d="M11.284 24.5993L6.20946 21.6755L1.24435 24.5364L14.1928 32V15.6424L0.00390625 7.46358V22.3907V22.3212V22.3907L4.96901 19.5298V13.6821C4.9657 13.4735 5.21113 13.3245 5.39355 13.4371L11.4233 16.9139C11.6057 17.0199 11.7086 17.2086 11.7086 17.404V24.3543C11.7119 24.5629 11.4664 24.7119 11.284 24.5993Z" fill="#CCCCCC"/>
</svg>
